<svg width="450" height="450" viewBox="0 0 450 450" fill="none" xmlns="http://www.w3.org/2000/svg">
<g filter="url(#filter0_d_257_146)">
<path d="M77.6151 147.089C121.557 118.498 147.202 111.549 155.705 110.54C156.726 110.419 157.72 110.233 158.693 109.899C183.583 101.365 235.96 96.1514 289.806 122.873C291.061 123.496 292.44 123.858 293.834 123.991C319.116 126.401 338.418 147.312 349.564 156.432C384.057 184.653 422.424 195.081 428.734 203.079C429.669 204.264 430.017 205.83 430.733 207.159C444.693 233.065 446.334 248.87 437.706 275.944C437.195 277.549 436.26 278.991 435.023 280.135C413.999 299.583 401.141 310.747 366.118 318.763C365.312 318.947 364.505 319.235 363.765 319.606C334.97 334.02 318.187 337.393 289.483 334.942C288.178 334.83 286.853 334.965 285.602 335.349C268.36 340.651 259.124 343.292 247.287 345.236C242.29 346.056 237.575 342.801 236.347 337.889L234.429 330.217C234.145 329.081 233.664 328.004 233.007 327.034L227.068 318.268C224.91 315.082 224.895 310.908 227.029 307.706L227.332 307.252C229.253 304.37 229.268 300.62 227.37 297.723L223.74 292.182C220.111 286.643 211.5 289.213 211.5 295.835V297.678C211.5 300.341 209.341 302.5 206.678 302.5C203.005 302.5 200.681 306.442 202.459 309.656L205.456 315.075C208.171 319.982 204.622 326 199.015 326C197.385 326 195.8 326.541 194.511 327.539L172.607 344.483C170.914 345.793 168.838 346.533 166.697 346.549C135.966 346.771 145.206 339.566 110.891 319.041C82.841 306.158 61.85 305.127 46.831 276.156C45.1275 272.87 41.9115 270.618 38.2479 270.09C31.6444 269.139 25.9852 267.345 17.6733 263.903C15.7572 263.11 14.124 261.736 13.1714 259.894C0.843888 236.053 2.46642 189.131 33.5037 166.787C43.7816 157.252 61.7458 150.682 73.3402 148.718C74.8522 148.462 76.3297 147.926 77.6151 147.089Z" fill="url(#paint0_radial_257_146)"/>
<path fill-rule="evenodd" clip-rule="evenodd" d="M198.75 192.375C198.75 190.419 197.973 188.543 196.59 187.16C195.207 185.777 193.331 185 191.375 185C189.419 185 187.543 185.777 186.16 187.16C184.777 188.543 184 190.419 184 192.375V199.75C184 201.706 184.777 203.582 186.16 204.965C187.543 206.348 189.419 207.125 191.375 207.125C193.331 207.125 195.207 206.348 196.59 204.965C197.973 203.582 198.75 201.706 198.75 199.75V192.375ZM257.75 185C255.794 185 253.918 185.777 252.535 187.16C251.152 188.543 250.375 190.419 250.375 192.375V199.75C250.375 201.706 251.152 203.582 252.535 204.965C253.918 206.348 255.794 207.125 257.75 207.125C259.706 207.125 261.582 206.348 262.965 204.965C264.348 203.582 265.125 201.706 265.125 199.75V192.375C265.125 190.419 264.348 188.543 262.965 187.16C261.582 185.777 259.706 185 257.75 185ZM202.438 258.75C202.438 252.882 204.769 247.255 208.918 243.105C213.067 238.956 218.695 236.625 224.562 236.625C230.43 236.625 236.058 238.956 240.207 243.105C244.356 247.255 246.688 252.882 246.688 258.75C246.688 260.706 247.465 262.582 248.848 263.965C250.231 265.348 252.107 266.125 254.062 266.125C256.018 266.125 257.894 265.348 259.277 263.965C260.66 262.582 261.438 260.706 261.438 258.75C261.438 238.384 244.929 221.875 224.562 221.875C204.196 221.875 187.688 238.384 187.688 258.75C187.688 260.706 188.465 262.582 189.848 263.965C191.231 265.348 193.107 266.125 195.062 266.125C197.018 266.125 198.894 265.348 200.277 263.965C201.66 262.582 202.438 260.706 202.438 258.75Z" fill="#774646"/>
</g>
<path d="M174.158 88.0541L178.416 94.6887L175.233 96.7315L167.868 85.2553L170.901 83.3085L172.201 85.3332L172.335 85.2469C172.161 84.4164 172.248 83.6151 172.596 82.843C172.941 82.0659 173.54 81.404 174.392 80.8574C175.189 80.3459 175.995 80.0743 176.812 80.0425C177.628 80.0108 178.409 80.2132 179.153 80.6497C179.894 81.0813 180.551 81.7428 181.123 82.6344L185.813 89.9415L182.63 91.9842L178.305 85.245C177.859 84.5395 177.328 84.1067 176.712 83.9465C176.092 83.7814 175.464 83.9035 174.826 84.3126C174.398 84.5876 174.079 84.9227 173.868 85.318C173.663 85.71 173.581 86.1421 173.624 86.614C173.668 87.0777 173.846 87.5578 174.158 88.0541Z" fill="#954F0D"/>
<path d="M196.554 85.5675C195.731 85.8489 194.948 85.9569 194.207 85.8915C193.463 85.8204 192.807 85.5662 192.238 85.1289C191.673 84.684 191.246 84.0359 190.955 83.1847C190.709 82.4678 190.635 81.8208 190.732 81.2436C190.829 80.6664 191.053 80.1518 191.405 79.6999C191.757 79.248 192.196 78.8479 192.721 78.4995C193.252 78.1491 193.826 77.834 194.443 77.5542C195.167 77.2192 195.747 76.9396 196.183 76.7154C196.617 76.4856 196.914 76.2653 197.074 76.0545C197.233 75.8436 197.266 75.601 197.172 75.3266L197.155 75.2762C196.973 74.7441 196.664 74.39 196.228 74.2136C195.798 74.0354 195.278 74.0506 194.668 74.2593C194.024 74.4794 193.56 74.7974 193.277 75.2132C192.992 75.6234 192.861 76.0624 192.883 76.5302L189.481 77.3929C189.381 76.5514 189.48 75.7608 189.777 75.0211C190.073 74.2757 190.557 73.616 191.231 73.0419C191.907 72.4602 192.761 71.9932 193.791 71.641C194.508 71.3959 195.223 71.2454 195.936 71.1894C196.654 71.1315 197.328 71.1918 197.959 71.3704C198.594 71.5471 199.156 71.8619 199.642 72.3149C200.126 72.7622 200.5 73.3695 200.762 74.1368L203.737 82.8397L200.343 83.9999L199.732 82.2106L199.631 82.2451C199.562 82.7191 199.406 83.1695 199.164 83.5963C198.92 84.0174 198.584 84.398 198.156 84.7382C197.727 85.0728 197.193 85.3492 196.554 85.5675ZM196.735 82.7473C197.261 82.5674 197.69 82.3049 198.023 81.9598C198.353 81.6091 198.572 81.2153 198.679 80.7784C198.786 80.3415 198.762 79.8962 198.607 79.4426L198.139 78.0733C198.052 78.1844 197.921 78.3043 197.746 78.4329C197.575 78.554 197.377 78.6809 197.154 78.8136C196.928 78.9408 196.702 79.0651 196.474 79.1866C196.245 79.3025 196.037 79.408 195.851 79.503C195.452 79.7082 195.118 79.9316 194.851 80.1733C194.583 80.4149 194.402 80.6802 194.307 80.9691C194.21 81.2525 194.218 81.5622 194.333 81.8982C194.5 82.3855 194.804 82.6976 195.244 82.8346C195.689 82.964 196.186 82.935 196.735 82.7473Z" fill="#954F0D"/>
<path d="M222.691 66.3904L219.226 80.4144L214.984 80.8149L208.956 67.6869L212.933 67.3115L216.67 76.7589L216.811 76.7455L218.705 66.7666L222.691 66.3904Z" fill="#954F0D"/>
<path d="M230.651 80.1795L233.315 62.194L237.056 62.7481L236.055 69.5103L236.169 69.5272C236.386 69.1885 236.678 68.8548 237.044 68.526C237.417 68.1923 237.873 67.9369 238.414 67.7597C238.962 67.5775 239.613 67.5424 240.368 67.6543C241.352 67.8 242.221 68.192 242.976 68.8304C243.732 69.4629 244.283 70.3312 244.628 71.4353C244.973 72.5336 245.032 73.8556 244.803 75.4012C244.58 76.9059 244.149 78.1403 243.509 79.1046C242.877 80.0639 242.105 80.7484 241.195 81.158C240.291 81.5627 239.327 81.6891 238.303 81.5373C237.577 81.4298 236.977 81.2183 236.503 80.9028C236.035 80.5882 235.667 80.2255 235.399 79.8148C235.131 79.3983 234.941 78.9901 234.826 78.5902L234.659 78.5655L234.339 80.7259L230.651 80.1795ZM235.312 73.9774C235.193 74.7795 235.201 75.4956 235.335 76.1257C235.469 76.7559 235.722 77.269 236.094 77.6652C236.467 78.0555 236.955 78.2953 237.558 78.3846C238.167 78.4748 238.707 78.3843 239.178 78.113C239.65 77.8359 240.038 77.4148 240.343 76.8497C240.655 76.2796 240.869 75.6023 240.985 74.8178C241.101 74.0391 241.094 73.3381 240.965 72.7146C240.836 72.0912 240.585 71.5814 240.213 71.1853C239.841 70.7891 239.348 70.5455 238.733 70.4545C238.124 70.3643 237.585 70.449 237.116 70.7085C236.652 70.969 236.266 71.3784 235.955 71.9367C235.645 72.4951 235.431 73.1753 235.312 73.9774Z" fill="#954F0D"/>
<path d="M253.985 85.7807C253.18 85.4513 252.519 85.0181 252.004 84.4811C251.49 83.9386 251.163 83.3156 251.022 82.6122C250.889 81.9056 250.993 81.1359 251.334 80.3032C251.62 79.602 251.99 79.0658 252.442 78.6945C252.895 78.3232 253.402 78.0831 253.965 77.9743C254.527 77.8654 255.121 77.8524 255.745 77.9353C256.376 78.0204 257.015 78.1605 257.665 78.3557C258.43 78.5792 259.051 78.75 259.527 78.868C260.005 78.9805 260.374 79.0097 260.632 78.9556C260.891 78.9016 261.075 78.7404 261.185 78.4719L261.205 78.4226C261.418 77.9022 261.418 77.4324 261.206 77.0131C261 76.596 260.598 76.2654 260.001 76.0212C259.371 75.7635 258.812 75.6982 258.325 75.8252C257.841 75.9468 257.453 76.1911 257.162 76.5581L254.032 74.971C254.51 74.2713 255.105 73.7406 255.815 73.379C256.528 73.012 257.327 72.8335 258.212 72.8436C259.104 72.8505 260.054 73.0601 261.062 73.4724C261.763 73.7591 262.401 74.1158 262.975 74.5423C263.554 74.971 264.022 75.4598 264.379 76.0088C264.742 76.5601 264.958 77.1663 265.026 77.8273C265.097 78.4829 264.979 79.186 264.672 79.9365L261.19 88.4494L257.871 87.0917L258.587 85.3414L258.488 85.3011C258.124 85.6126 257.71 85.8496 257.248 86.012C256.787 86.1689 256.284 86.2348 255.738 86.2097C255.194 86.1791 254.61 86.0361 253.985 85.7807ZM255.976 83.7749C256.491 83.9855 256.987 84.0701 257.464 84.0287C257.944 83.9819 258.367 83.8291 258.735 83.5703C259.103 83.3116 259.378 82.9604 259.56 82.5166L260.107 81.1772C259.969 81.2036 259.791 81.2078 259.575 81.1896C259.366 81.1682 259.134 81.134 258.878 81.0869C258.625 81.0344 258.372 80.9792 258.121 80.9212C257.872 80.8577 257.646 80.8005 257.443 80.7494C257.008 80.6417 256.61 80.5908 256.249 80.5968C255.889 80.6028 255.577 80.6834 255.316 80.8385C255.056 80.9882 254.859 81.2273 254.725 81.556C254.53 82.0326 254.554 82.4675 254.796 82.8606C255.045 83.2505 255.439 83.5553 255.976 83.7749Z" fill="#954F0D"/>
<path d="M267.993 92.3048L275.693 81.0502L278.719 83.1205L277.375 85.0842L277.493 85.1644C278.176 84.6062 278.881 84.3142 279.609 84.2885C280.339 84.2579 281.02 84.4581 281.65 84.8892C281.806 84.9961 281.968 85.1212 282.136 85.2644C282.303 85.4076 282.443 85.5431 282.557 85.6708L280.662 88.4405C280.545 88.2963 280.369 88.1185 280.134 87.9072C279.898 87.6959 279.673 87.5167 279.458 87.3697C278.999 87.0555 278.52 86.875 278.022 86.8279C277.532 86.7794 277.061 86.8591 276.61 87.0671C276.165 87.2785 275.785 87.6137 275.471 88.0729L271.114 94.4402L267.993 92.3048Z" fill="#954F0D"/>
<defs>
<filter id="filter0_d_257_146" x="2" y="103" width="445" height="251.554" filterUnits="userSpaceOnUse" color-interpolation-filters="sRGB">
<feFlood flood-opacity="0" result="BackgroundImageFix"/>
<feColorMatrix in="SourceAlpha" type="matrix" values="0 0 0 0 0 0 0 0 0 0 0 0 0 0 0 0 0 0 127 0" result="hardAlpha"/>
<feOffset dy="4"/>
<feGaussianBlur stdDeviation="2"/>
<feComposite in2="hardAlpha" operator="out"/>
<feColorMatrix type="matrix" values="0 0 0 0 0.937255 0 0 0 0 0.85098 0 0 0 0 0.85098 0 0 0 1 0"/>
<feBlend mode="normal" in2="BackgroundImageFix" result="effect1_dropShadow_257_146"/>
<feBlend mode="normal" in="SourceGraphic" in2="effect1_dropShadow_257_146" result="shape"/>
</filter>
<radialGradient id="paint0_radial_257_146" cx="0" cy="0" r="1" gradientUnits="userSpaceOnUse" gradientTransform="translate(224.5 226.5) rotate(-14.5303) scale(225.72 400.152)">
<stop stop-color="#EDB96A"/>
<stop offset="0.485577" stop-color="#E6A530"/>
<stop offset="1" stop-color="#7F3704"/>
</radialGradient>
</defs>
</svg>
